<svg width="64" height="63" viewBox="0 0 64 63" fill="none" xmlns="http://www.w3.org/2000/svg">
<path d="M57.1158 50.7517C56.4918 50.1333 56.5044 49.1596 57.004 48.4388C60.4532 43.4624 62.4717 37.4368 62.4717 30.944C62.4717 13.8541 48.487 0 31.2359 0C13.9848 0 0 13.8541 0 30.944C0 43.974 7.99974 54.2839 19.5224 59.4706C25.2798 62.0621 30.2847 62.8551 38.0687 62.8551C46.7879 62.8551 55.0387 60.8682 62.3849 57.3265C63.9979 56.5488 65.1407 55.2354 62.0872 53.8971C61.379 53.5868 60.6905 53.2404 60.024 52.8604C58.9461 52.3078 57.9659 51.5942 57.1158 50.7517Z" fill="#7234D5"/>
<path fill-rule="evenodd" clip-rule="evenodd" d="M23.0542 27.0753C21.1273 23.939 16.0677 24.3816 14.7147 27.805C14.1854 29.144 12.671 29.8004 11.3319 29.2712C9.99293 28.742 9.33646 27.2275 9.86568 25.8885C12.798 18.4693 23.3207 17.5489 27.4967 24.3459C28.2504 25.5726 27.867 27.1781 26.6402 27.9318C25.4134 28.6855 23.808 28.3021 23.0542 27.0753Z" fill="white"/>
<path fill-rule="evenodd" clip-rule="evenodd" d="M46.4278 25.0304C44.5009 21.894 39.4413 22.3367 38.0883 25.76C37.559 27.099 36.0445 27.7555 34.7055 27.2263C33.3665 26.6971 32.71 25.1826 33.2393 23.8436C36.1716 16.4244 46.6943 15.504 50.8703 22.3009C51.624 23.5277 51.2405 25.1332 50.0138 25.8869C48.787 26.6406 47.1815 26.2571 46.4278 25.0304Z" fill="white"/>
<path d="M48.9774 36.7218L14.234 39.7615C12.6292 39.9019 12.2627 42.0857 13.7337 42.7423C25.5549 48.0189 39.2624 46.8197 49.9877 39.5705C51.3224 38.6684 50.5822 36.5814 48.9774 36.7218Z" fill="white"/>
</svg>
